<svg id="Layer_1" data-name="Layer 1" xmlns="http://www.w3.org/2000/svg" viewBox="0 0 601.82 601.53"><defs><style>.cls-1,.cls-4{fill:none;}.cls-1,.cls-2,.cls-4{stroke:#97479b;}.cls-1,.cls-2,.cls-3,.cls-4{stroke-miterlimit:10;}.cls-1{stroke-width:20px;}.cls-2{fill:#97479b;}.cls-2,.cls-3,.cls-4{stroke-width:15px;}.cls-3{fill:#fff;stroke:#231f20;}</style></defs><title>Ghosty-surprise</title><path class="cls-1" d="M484.41,228c7.71,21.1,102.41,259.07,104.08,333.35,2,88-46.49,145.77-46.49,145.77-17.94-3.46-60.44-63.73-105.76-60.7-38.68,2.58-44.36,61.66-90.9,69.11-51.42,8.23-81.41-63.7-147-60.61-50.68,2.4-55.41,44.9-107.55,47.85-54.67,3.1-80.53-25.1-84.06-75.76-.54-7.8,77.16-74.49,105.47-162.33,39.15-121.48-4-173.65,46.49-255.64,30.53-49.62,78.08-74.38,145.51-74.38C423.55,134.63,466.42,178.74,484.41,228Z" transform="translate(3.27 -124.63)"/><ellipse class="cls-2" cx="271.25" cy="159.17" rx="25.77" ry="23.04"/><ellipse class="cls-2" cx="371.5" cy="159.17" rx="25.77" ry="23.04"/><path class="cls-3" d="M79,263.58" transform="translate(3.27 -124.63)"/><ellipse class="cls-4" cx="322.8" cy="256.44" rx="39.82" ry="35.6"/></svg>