<svg id="Layer_1" data-name="Layer 1" xmlns="http://www.w3.org/2000/svg" viewBox="0 0 592.88 576.39"><defs><style>.cls-1{fill:none;}.cls-1,.cls-2,.cls-3,.cls-4{stroke:#97489b;stroke-linejoin:round;}.cls-1,.cls-2,.cls-3{stroke-width:10px;}.cls-2{fill:#97489b;}.cls-3{fill:#97479b;}.cls-4{fill:#231f20;stroke-linecap:round;stroke-width:15px;}</style></defs><title>image-gallery-icon-fixed</title><rect class="cls-1" x="347.36" y="5" width="240.51" height="240.51" rx="50.65"/><polygon class="cls-2" points="426.04 153.54 372.49 237.29 479.59 237.29 426.04 153.54"/><polygon class="cls-3" points="479.59 98.19 397.56 237.66 561.62 237.66 479.59 98.19"/><circle class="cls-2" cx="534.37" cy="50.22" r="25.54"/><line class="cls-4" x1="295.95" y1="55.36" x2="295.95" y2="521.03"/><rect class="cls-1" x="5" y="5" width="240.51" height="240.51" rx="50.65"/><polygon class="cls-2" points="85.78 153.54 32.23 237.29 139.33 237.29 85.78 153.54"/><polygon class="cls-2" points="139.33 98.19 57.3 237.66 221.36 237.66 139.33 98.19"/><circle class="cls-2" cx="192.01" cy="50.22" r="25.54"/><rect class="cls-1" x="5" y="330.87" width="240.51" height="240.51" rx="50.65"/><polygon class="cls-2" points="85.78 479.42 32.23 563.16 139.33 563.16 85.78 479.42"/><polygon class="cls-2" points="139.33 424.06 57.3 563.53 221.36 563.53 139.33 424.06"/><circle class="cls-2" cx="192.01" cy="376.09" r="25.54"/><rect class="cls-1" x="347.36" y="330.87" width="240.51" height="240.51" rx="50.65"/><polygon class="cls-2" points="426.04 479.42 372.49 563.16 479.59 563.16 426.04 479.42"/><polygon class="cls-2" points="479.59 424.06 397.56 563.53 561.62 563.53 479.59 424.06"/><circle class="cls-2" cx="534.37" cy="376.09" r="25.54"/><line class="cls-4" x1="63.12" y1="288.19" x2="528.78" y2="288.19"/></svg>