<svg id="Layer_1" data-name="Layer 1" xmlns="http://www.w3.org/2000/svg" viewBox="0 0 574.75 392.35"><defs><style>.cls-1,.cls-2,.cls-3,.cls-4,.cls-5,.cls-6{fill:#97479b;stroke:#97479b;}.cls-1{stroke-linecap:round;stroke-linejoin:round;stroke-width:15px;}.cls-2,.cls-3,.cls-4,.cls-5,.cls-6{isolation:isolate;stroke-miterlimit:10;font-family:ArialMT, Arial;}.cls-2,.cls-3,.cls-4,.cls-5{font-size:14.42px;}.cls-2{letter-spacing:-0.09em;}.cls-4{letter-spacing:-0.01em;}.cls-5{letter-spacing:0.01em;}.cls-6{font-size:57.7px;}</style></defs><title>recipe-app-icon</title><line class="cls-1" x1="136.96" y1="75.4" x2="136.96" y2="384.85"/><line class="cls-1" x1="7.5" y1="75.4" x2="567.25" y2="75.4"/><text class="cls-2" transform="translate(2.48 103.36)">L</text><text class="cls-2" transform="translate(2.48 103.36)">L</text><text class="cls-2" transform="translate(2.48 103.36)">L</text><text class="cls-2" transform="translate(2.48 103.36)">L</text><text class="cls-3" transform="translate(9.09 103.36)">o</text><text class="cls-3" transform="translate(9.09 103.36)">o</text><text class="cls-3" transform="translate(9.09 103.36)">o</text><text class="cls-3" transform="translate(9.09 103.36)">o</text><text class="cls-4" transform="translate(17.01 103.36)">r</text><text class="cls-4" transform="translate(17.01 103.36)">r</text><text class="cls-4" transform="translate(17.01 103.36)">r</text><text class="cls-4" transform="translate(17.01 103.36)">r</text><text class="cls-3" transform="translate(21.58 103.36)">em ipsum dolor</text><text class="cls-3" transform="translate(21.58 103.36)">em ipsum dolor</text><text class="cls-3" transform="translate(21.58 103.36)">em ipsum dolor</text><text class="cls-3" transform="translate(21.58 103.36)">em ipsum dolor</text><text class="cls-3" transform="translate(2.48 120.67)">sit ame</text><text class="cls-3" transform="translate(2.48 120.67)">sit ame</text><text class="cls-3" transform="translate(2.48 120.67)">sit ame</text><text class="cls-3" transform="translate(2.48 120.67)">sit ame</text><text class="cls-3" transform="translate(45.61 120.67)">t</text><text class="cls-3" transform="translate(45.61 120.67)">t</text><text class="cls-3" transform="translate(45.61 120.67)">t</text><text class="cls-3" transform="translate(45.61 120.67)">t</text><text class="cls-3" transform="translate(50.34 120.67)">,</text><text class="cls-3" transform="translate(50.34 120.67)">,</text><text class="cls-3" transform="translate(50.34 120.67)">,</text><text class="cls-3" transform="translate(50.34 120.67)">,</text><text class="cls-4" transform="translate(56.38 120.67)">c</text><text class="cls-4" transform="translate(56.38 120.67)">c</text><text class="cls-4" transform="translate(56.38 120.67)">c</text><text class="cls-4" transform="translate(56.38 120.67)">c</text><text class="cls-3" transform="translate(62.76 120.67)">onsec</text><text class="cls-3" transform="translate(62.76 120.67)">onsec</text><text class="cls-3" transform="translate(62.76 120.67)">onsec</text><text class="cls-3" transform="translate(62.76 120.67)">onsec</text><text class="cls-2" transform="translate(158.72 106.6)">L</text><text class="cls-2" transform="translate(158.72 106.6)">L</text><text class="cls-2" transform="translate(158.72 106.6)">L</text><text class="cls-2" transform="translate(158.72 106.6)">L</text><text class="cls-3" transform="translate(165.33 106.6)">o</text><text class="cls-3" transform="translate(165.33 106.6)">o</text><text class="cls-3" transform="translate(165.33 106.6)">o</text><text class="cls-3" transform="translate(165.33 106.6)">o</text><text class="cls-4" transform="translate(173.25 106.6)">r</text><text class="cls-4" transform="translate(173.25 106.6)">r</text><text class="cls-4" transform="translate(173.25 106.6)">r</text><text class="cls-4" transform="translate(173.25 106.6)">r</text><text class="cls-3" transform="translate(177.82 106.6)">em ipsum dolor sit ame</text><text class="cls-3" transform="translate(177.82 106.6)">em ipsum dolor sit ame</text><text class="cls-3" transform="translate(177.82 106.6)">em ipsum dolor sit ame</text><text class="cls-3" transform="translate(177.82 106.6)">em ipsum dolor sit ame</text><text class="cls-3" transform="translate(318.74 106.6)">t</text><text class="cls-3" transform="translate(318.74 106.6)">t</text><text class="cls-3" transform="translate(318.74 106.6)">t</text><text class="cls-3" transform="translate(318.74 106.6)">t</text><text class="cls-3" transform="translate(323.47 106.6)">,</text><text class="cls-3" transform="translate(323.47 106.6)">,</text><text class="cls-3" transform="translate(323.47 106.6)">,</text><text class="cls-3" transform="translate(323.47 106.6)">,</text><text class="cls-4" transform="translate(329.51 106.6)">c</text><text class="cls-4" transform="translate(329.51 106.6)">c</text><text class="cls-4" transform="translate(329.51 106.6)">c</text><text class="cls-4" transform="translate(329.51 106.6)">c</text><text class="cls-3" transform="translate(335.89 106.6)">onse</text><text class="cls-3" transform="translate(335.89 106.6)">onse</text><text class="cls-3" transform="translate(335.89 106.6)">onse</text><text class="cls-3" transform="translate(335.89 106.6)">onse</text><text class="cls-5" transform="translate(364.75 106.6)">c</text><text class="cls-5" transform="translate(364.75 106.6)">c</text><text class="cls-5" transform="translate(364.75 106.6)">c</text><text class="cls-5" transform="translate(364.75 106.6)">c</text><text class="cls-4" transform="translate(371.4 106.6)">t</text><text class="cls-4" transform="translate(371.4 106.6)">t</text><text class="cls-4" transform="translate(371.4 106.6)">t</text><text class="cls-4" transform="translate(371.4 106.6)">t</text><text class="cls-3" transform="translate(376.09 106.6)">etuer adipiscing eli</text><text class="cls-3" transform="translate(376.09 106.6)">etuer adipiscing eli</text><text class="cls-3" transform="translate(376.09 106.6)">etuer adipiscing eli</text><text class="cls-3" transform="translate(376.09 106.6)">etuer adipiscing eli</text><text class="cls-3" transform="translate(489.76 106.6)">t</text><text class="cls-3" transform="translate(489.76 106.6)">t</text><text class="cls-3" transform="translate(489.76 106.6)">t</text><text class="cls-3" transform="translate(489.76 106.6)">t</text><text class="cls-3" transform="translate(494.5 106.6)">, sed diam</text><text class="cls-3" transform="translate(494.5 106.6)">, sed diam</text><text class="cls-3" transform="translate(494.5 106.6)">, sed diam</text><text class="cls-3" transform="translate(494.5 106.6)">, sed diam</text><text class="cls-3" transform="translate(158.72 123.91)">nonum</text><text class="cls-3" transform="translate(158.72 123.91)">nonum</text><text class="cls-3" transform="translate(158.72 123.91)">nonum</text><text class="cls-3" transform="translate(158.72 123.91)">nonum</text><text class="cls-4" transform="translate(202.63 123.91)">m</text><text class="cls-4" transform="translate(202.63 123.91)">m</text><text class="cls-4" transform="translate(202.63 123.91)">m</text><text class="cls-4" transform="translate(202.63 123.91)">m</text><text class="cls-3" transform="translate(214.47 123.91)">y nibh euismod tincidu</text><text class="cls-3" transform="translate(214.47 123.91)">y nibh euismod tincidu</text><text class="cls-3" transform="translate(214.47 123.91)">y nibh euismod tincidu</text><text class="cls-3" transform="translate(214.47 123.91)">y nibh euismod tincidu</text><text class="cls-3" transform="translate(352.45 123.91)">n</text><text class="cls-3" transform="translate(352.45 123.91)">n</text><text class="cls-3" transform="translate(352.45 123.91)">n</text><text class="cls-3" transform="translate(352.45 123.91)">n</text><text class="cls-3" transform="translate(360.4 123.91)">t ut lao</text><text class="cls-3" transform="translate(360.4 123.91)">t ut lao</text><text class="cls-3" transform="translate(360.4 123.91)">t ut lao</text><text class="cls-3" transform="translate(360.4 123.91)">t ut lao</text><text class="cls-4" transform="translate(402.28 123.91)">r</text><text class="cls-4" transform="translate(402.28 123.91)">r</text><text class="cls-4" transform="translate(402.28 123.91)">r</text><text class="cls-4" transform="translate(402.28 123.91)">r</text><text class="cls-3" transform="translate(406.86 123.91)">eet dolo</text><text class="cls-3" transform="translate(406.86 123.91)">eet dolo</text><text class="cls-3" transform="translate(406.86 123.91)">eet dolo</text><text class="cls-3" transform="translate(406.86 123.91)">eet dolo</text><text class="cls-4" transform="translate(456.52 123.91)">r</text><text class="cls-4" transform="translate(456.52 123.91)">r</text><text class="cls-4" transform="translate(456.52 123.91)">r</text><text class="cls-4" transform="translate(456.52 123.91)">r</text><text class="cls-3" transform="translate(461.09 123.91)">e ma</text><text class="cls-3" transform="translate(461.09 123.91)">e ma</text><text class="cls-3" transform="translate(461.09 123.91)">e ma</text><text class="cls-3" transform="translate(461.09 123.91)">e ma</text><text class="cls-4" transform="translate(490.36 123.91)">g</text><text class="cls-4" transform="translate(490.36 123.91)">g</text><text class="cls-4" transform="translate(490.36 123.91)">g</text><text class="cls-4" transform="translate(490.36 123.91)">g</text><text class="cls-3" transform="translate(498.33 123.91)">na aliquam</text><text class="cls-3" transform="translate(498.33 123.91)">na aliquam</text><text class="cls-3" transform="translate(498.33 123.91)">na aliquam</text><text class="cls-3" transform="translate(498.33 123.91)">na aliquam</text><text class="cls-2" transform="translate(1.84 162.36)">L</text><text class="cls-2" transform="translate(1.84 162.36)">L</text><text class="cls-2" transform="translate(1.84 162.36)">L</text><text class="cls-2" transform="translate(1.84 162.36)">L</text><text class="cls-3" transform="translate(8.45 162.36)">o</text><text class="cls-3" transform="translate(8.45 162.36)">o</text><text class="cls-3" transform="translate(8.45 162.36)">o</text><text class="cls-3" transform="translate(8.45 162.36)">o</text><text class="cls-4" transform="translate(16.37 162.36)">r</text><text class="cls-4" transform="translate(16.37 162.36)">r</text><text class="cls-4" transform="translate(16.37 162.36)">r</text><text class="cls-4" transform="translate(16.37 162.36)">r</text><text class="cls-3" transform="translate(20.94 162.36)">em ipsum dolor</text><text class="cls-3" transform="translate(20.94 162.36)">em ipsum dolor</text><text class="cls-3" transform="translate(20.94 162.36)">em ipsum dolor</text><text class="cls-3" transform="translate(20.94 162.36)">em ipsum dolor</text><text class="cls-3" transform="translate(1.84 179.67)">sit ame</text><text class="cls-3" transform="translate(1.84 179.67)">sit ame</text><text class="cls-3" transform="translate(1.84 179.67)">sit ame</text><text class="cls-3" transform="translate(1.84 179.67)">sit ame</text><text class="cls-3" transform="translate(44.97 179.67)">t</text><text class="cls-3" transform="translate(44.97 179.67)">t</text><text class="cls-3" transform="translate(44.97 179.67)">t</text><text class="cls-3" transform="translate(44.97 179.67)">t</text><text class="cls-3" transform="translate(49.7 179.67)">,</text><text class="cls-3" transform="translate(49.7 179.67)">,</text><text class="cls-3" transform="translate(49.7 179.67)">,</text><text class="cls-3" transform="translate(49.7 179.67)">,</text><text class="cls-4" transform="translate(55.74 179.67)">c</text><text class="cls-4" transform="translate(55.74 179.67)">c</text><text class="cls-4" transform="translate(55.74 179.67)">c</text><text class="cls-4" transform="translate(55.74 179.67)">c</text><text class="cls-3" transform="translate(62.12 179.67)">onsec</text><text class="cls-3" transform="translate(62.12 179.67)">onsec</text><text class="cls-3" transform="translate(62.12 179.67)">onsec</text><text class="cls-3" transform="translate(62.12 179.67)">onsec</text><text class="cls-2" transform="translate(160.02 163.65)">L</text><text class="cls-2" transform="translate(160.02 163.65)">L</text><text class="cls-2" transform="translate(160.02 163.65)">L</text><text class="cls-2" transform="translate(160.02 163.65)">L</text><text class="cls-3" transform="translate(166.63 163.65)">o</text><text class="cls-3" transform="translate(166.63 163.65)">o</text><text class="cls-3" transform="translate(166.63 163.65)">o</text><text class="cls-3" transform="translate(166.63 163.65)">o</text><text class="cls-4" transform="translate(174.55 163.65)">r</text><text class="cls-4" transform="translate(174.55 163.65)">r</text><text class="cls-4" transform="translate(174.55 163.65)">r</text><text class="cls-4" transform="translate(174.55 163.65)">r</text><text class="cls-3" transform="translate(179.12 163.65)">em ipsum dolor sit ame</text><text class="cls-3" transform="translate(179.12 163.65)">em ipsum dolor sit ame</text><text class="cls-3" transform="translate(179.12 163.65)">em ipsum dolor sit ame</text><text class="cls-3" transform="translate(179.12 163.65)">em ipsum dolor sit ame</text><text class="cls-3" transform="translate(320.04 163.65)">t</text><text class="cls-3" transform="translate(320.04 163.65)">t</text><text class="cls-3" transform="translate(320.04 163.65)">t</text><text class="cls-3" transform="translate(320.04 163.65)">t</text><text class="cls-3" transform="translate(324.77 163.65)">,</text><text class="cls-3" transform="translate(324.77 163.65)">,</text><text class="cls-3" transform="translate(324.77 163.65)">,</text><text class="cls-3" transform="translate(324.77 163.65)">,</text><text class="cls-4" transform="translate(330.82 163.65)">c</text><text class="cls-4" transform="translate(330.82 163.65)">c</text><text class="cls-4" transform="translate(330.82 163.65)">c</text><text class="cls-4" transform="translate(330.82 163.65)">c</text><text class="cls-3" transform="translate(337.19 163.65)">onse</text><text class="cls-3" transform="translate(337.19 163.65)">onse</text><text class="cls-3" transform="translate(337.19 163.65)">onse</text><text class="cls-3" transform="translate(337.19 163.65)">onse</text><text class="cls-5" transform="translate(366.05 163.65)">c</text><text class="cls-5" transform="translate(366.05 163.65)">c</text><text class="cls-5" transform="translate(366.05 163.65)">c</text><text class="cls-5" transform="translate(366.05 163.65)">c</text><text class="cls-4" transform="translate(372.7 163.65)">t</text><text class="cls-4" transform="translate(372.7 163.65)">t</text><text class="cls-4" transform="translate(372.7 163.65)">t</text><text class="cls-4" transform="translate(372.7 163.65)">t</text><text class="cls-3" transform="translate(377.39 163.65)">etuer adipiscing eli</text><text class="cls-3" transform="translate(377.39 163.65)">etuer adipiscing eli</text><text class="cls-3" transform="translate(377.39 163.65)">etuer adipiscing eli</text><text class="cls-3" transform="translate(377.39 163.65)">etuer adipiscing eli</text><text class="cls-3" transform="translate(491.07 163.65)">t</text><text class="cls-3" transform="translate(491.07 163.65)">t</text><text class="cls-3" transform="translate(491.07 163.65)">t</text><text class="cls-3" transform="translate(491.07 163.65)">t</text><text class="cls-3" transform="translate(495.8 163.65)">, sed diam</text><text class="cls-3" transform="translate(495.8 163.65)">, sed diam</text><text class="cls-3" transform="translate(495.8 163.65)">, sed diam</text><text class="cls-3" transform="translate(495.8 163.65)">, sed diam</text><text class="cls-3" transform="translate(160.02 180.96)">nonum</text><text class="cls-3" transform="translate(160.02 180.96)">nonum</text><text class="cls-3" transform="translate(160.02 180.96)">nonum</text><text class="cls-3" transform="translate(160.02 180.96)">nonum</text><text class="cls-4" transform="translate(203.93 180.96)">m</text><text class="cls-4" transform="translate(203.93 180.96)">m</text><text class="cls-4" transform="translate(203.93 180.96)">m</text><text class="cls-4" transform="translate(203.93 180.96)">m</text><text class="cls-3" transform="translate(215.77 180.96)">y nibh euismod tincidu</text><text class="cls-3" transform="translate(215.77 180.96)">y nibh euismod tincidu</text><text class="cls-3" transform="translate(215.77 180.96)">y nibh euismod tincidu</text><text class="cls-3" transform="translate(215.77 180.96)">y nibh euismod tincidu</text><text class="cls-3" transform="translate(353.75 180.96)">n</text><text class="cls-3" transform="translate(353.75 180.96)">n</text><text class="cls-3" transform="translate(353.75 180.96)">n</text><text class="cls-3" transform="translate(353.75 180.96)">n</text><text class="cls-3" transform="translate(361.7 180.96)">t ut lao</text><text class="cls-3" transform="translate(361.7 180.96)">t ut lao</text><text class="cls-3" transform="translate(361.7 180.96)">t ut lao</text><text class="cls-3" transform="translate(361.7 180.96)">t ut lao</text><text class="cls-4" transform="translate(403.58 180.96)">r</text><text class="cls-4" transform="translate(403.58 180.96)">r</text><text class="cls-4" transform="translate(403.58 180.96)">r</text><text class="cls-4" transform="translate(403.58 180.96)">r</text><text class="cls-3" transform="translate(408.16 180.96)">eet dolo</text><text class="cls-3" transform="translate(408.16 180.96)">eet dolo</text><text class="cls-3" transform="translate(408.16 180.96)">eet dolo</text><text class="cls-3" transform="translate(408.16 180.96)">eet dolo</text><text class="cls-4" transform="translate(457.82 180.96)">r</text><text class="cls-4" transform="translate(457.82 180.96)">r</text><text class="cls-4" transform="translate(457.82 180.96)">r</text><text class="cls-4" transform="translate(457.82 180.96)">r</text><text class="cls-3" transform="translate(462.39 180.96)">e ma</text><text class="cls-3" transform="translate(462.39 180.96)">e ma</text><text class="cls-3" transform="translate(462.39 180.96)">e ma</text><text class="cls-3" transform="translate(462.39 180.96)">e ma</text><text class="cls-4" transform="translate(491.66 180.96)">g</text><text class="cls-4" transform="translate(491.66 180.96)">g</text><text class="cls-4" transform="translate(491.66 180.96)">g</text><text class="cls-4" transform="translate(491.66 180.96)">g</text><text class="cls-3" transform="translate(499.63 180.96)">na</text><text class="cls-3" transform="translate(499.63 180.96)">na</text><text class="cls-3" transform="translate(499.63 180.96)">na</text><text class="cls-3" transform="translate(499.63 180.96)">na</text><text class="cls-2" transform="translate(1.84 223.94)">L</text><text class="cls-2" transform="translate(1.84 223.94)">L</text><text class="cls-2" transform="translate(1.84 223.94)">L</text><text class="cls-2" transform="translate(1.84 223.94)">L</text><text class="cls-3" transform="translate(8.45 223.94)">o</text><text class="cls-3" transform="translate(8.45 223.94)">o</text><text class="cls-3" transform="translate(8.45 223.94)">o</text><text class="cls-3" transform="translate(8.45 223.94)">o</text><text class="cls-4" transform="translate(16.37 223.94)">r</text><text class="cls-4" transform="translate(16.37 223.94)">r</text><text class="cls-4" transform="translate(16.37 223.94)">r</text><text class="cls-4" transform="translate(16.37 223.94)">r</text><text class="cls-3" transform="translate(20.94 223.94)">em ipsum dolor</text><text class="cls-3" transform="translate(20.94 223.94)">em ipsum dolor</text><text class="cls-3" transform="translate(20.94 223.94)">em ipsum dolor</text><text class="cls-3" transform="translate(20.94 223.94)">em ipsum dolor</text><text class="cls-3" transform="translate(1.84 241.25)">sit ame</text><text class="cls-3" transform="translate(1.84 241.25)">sit ame</text><text class="cls-3" transform="translate(1.84 241.25)">sit ame</text><text class="cls-3" transform="translate(1.84 241.25)">sit ame</text><text class="cls-3" transform="translate(44.97 241.25)">t</text><text class="cls-3" transform="translate(44.97 241.25)">t</text><text class="cls-3" transform="translate(44.97 241.25)">t</text><text class="cls-3" transform="translate(44.97 241.25)">t</text><text class="cls-3" transform="translate(49.7 241.25)">,</text><text class="cls-3" transform="translate(49.7 241.25)">,</text><text class="cls-3" transform="translate(49.7 241.25)">,</text><text class="cls-3" transform="translate(49.7 241.25)">,</text><text class="cls-4" transform="translate(55.74 241.25)">c</text><text class="cls-4" transform="translate(55.74 241.25)">c</text><text class="cls-4" transform="translate(55.74 241.25)">c</text><text class="cls-4" transform="translate(55.74 241.25)">c</text><text class="cls-3" transform="translate(62.12 241.25)">onsec</text><text class="cls-3" transform="translate(62.12 241.25)">onsec</text><text class="cls-3" transform="translate(62.12 241.25)">onsec</text><text class="cls-3" transform="translate(62.12 241.25)">onsec</text><text class="cls-2" transform="translate(1.19 282.94)">L</text><text class="cls-2" transform="translate(1.19 282.94)">L</text><text class="cls-2" transform="translate(1.19 282.94)">L</text><text class="cls-2" transform="translate(1.19 282.94)">L</text><text class="cls-3" transform="translate(7.8 282.94)">o</text><text class="cls-3" transform="translate(7.8 282.94)">o</text><text class="cls-3" transform="translate(7.8 282.94)">o</text><text class="cls-3" transform="translate(7.8 282.94)">o</text><text class="cls-4" transform="translate(15.72 282.94)">r</text><text class="cls-4" transform="translate(15.72 282.94)">r</text><text class="cls-4" transform="translate(15.72 282.94)">r</text><text class="cls-4" transform="translate(15.72 282.94)">r</text><text class="cls-3" transform="translate(20.29 282.94)">em ipsum dolor</text><text class="cls-3" transform="translate(20.29 282.94)">em ipsum dolor</text><text class="cls-3" transform="translate(20.29 282.94)">em ipsum dolor</text><text class="cls-3" transform="translate(20.29 282.94)">em ipsum dolor</text><text class="cls-3" transform="translate(1.19 300.25)">sit ame</text><text class="cls-3" transform="translate(1.19 300.25)">sit ame</text><text class="cls-3" transform="translate(1.19 300.25)">sit ame</text><text class="cls-3" transform="translate(1.19 300.25)">sit ame</text><text class="cls-3" transform="translate(44.32 300.25)">t</text><text class="cls-3" transform="translate(44.32 300.25)">t</text><text class="cls-3" transform="translate(44.32 300.25)">t</text><text class="cls-3" transform="translate(44.32 300.25)">t</text><text class="cls-3" transform="translate(49.05 300.25)">,</text><text class="cls-3" transform="translate(49.05 300.25)">,</text><text class="cls-3" transform="translate(49.05 300.25)">,</text><text class="cls-3" transform="translate(49.05 300.25)">,</text><text class="cls-4" transform="translate(55.09 300.25)">c</text><text class="cls-4" transform="translate(55.09 300.25)">c</text><text class="cls-4" transform="translate(55.09 300.25)">c</text><text class="cls-4" transform="translate(55.09 300.25)">c</text><text class="cls-3" transform="translate(61.47 300.25)">onsec</text><text class="cls-3" transform="translate(61.47 300.25)">onsec</text><text class="cls-3" transform="translate(61.47 300.25)">onsec</text><text class="cls-3" transform="translate(61.47 300.25)">onsec</text><text class="cls-2" transform="translate(163.13 223.94)">L</text><text class="cls-2" transform="translate(163.13 223.94)">L</text><text class="cls-2" transform="translate(163.13 223.94)">L</text><text class="cls-2" transform="translate(163.13 223.94)">L</text><text class="cls-3" transform="translate(169.74 223.94)">o</text><text class="cls-3" transform="translate(169.74 223.94)">o</text><text class="cls-3" transform="translate(169.74 223.94)">o</text><text class="cls-3" transform="translate(169.74 223.94)">o</text><text class="cls-4" transform="translate(177.66 223.94)">r</text><text class="cls-4" transform="translate(177.66 223.94)">r</text><text class="cls-4" transform="translate(177.66 223.94)">r</text><text class="cls-4" transform="translate(177.66 223.94)">r</text><text class="cls-3" transform="translate(182.23 223.94)">em ipsum dolor sit ame</text><text class="cls-3" transform="translate(182.23 223.94)">em ipsum dolor sit ame</text><text class="cls-3" transform="translate(182.23 223.94)">em ipsum dolor sit ame</text><text class="cls-3" transform="translate(182.23 223.94)">em ipsum dolor sit ame</text><text class="cls-3" transform="translate(323.15 223.94)">t</text><text class="cls-3" transform="translate(323.15 223.94)">t</text><text class="cls-3" transform="translate(323.15 223.94)">t</text><text class="cls-3" transform="translate(323.15 223.94)">t</text><text class="cls-3" transform="translate(327.88 223.94)">,</text><text class="cls-3" transform="translate(327.88 223.94)">,</text><text class="cls-3" transform="translate(327.88 223.94)">,</text><text class="cls-3" transform="translate(327.88 223.94)">,</text><text class="cls-4" transform="translate(333.93 223.94)">c</text><text class="cls-4" transform="translate(333.93 223.94)">c</text><text class="cls-4" transform="translate(333.93 223.94)">c</text><text class="cls-4" transform="translate(333.93 223.94)">c</text><text class="cls-3" transform="translate(340.3 223.94)">onse</text><text class="cls-3" transform="translate(340.3 223.94)">onse</text><text class="cls-3" transform="translate(340.3 223.94)">onse</text><text class="cls-3" transform="translate(340.3 223.94)">onse</text><text class="cls-5" transform="translate(369.16 223.94)">c</text><text class="cls-5" transform="translate(369.16 223.94)">c</text><text class="cls-5" transform="translate(369.16 223.94)">c</text><text class="cls-5" transform="translate(369.16 223.94)">c</text><text class="cls-4" transform="translate(375.81 223.94)">t</text><text class="cls-4" transform="translate(375.81 223.94)">t</text><text class="cls-4" transform="translate(375.81 223.94)">t</text><text class="cls-4" transform="translate(375.81 223.94)">t</text><text class="cls-3" transform="translate(380.5 223.94)">etuer adipiscing eli</text><text class="cls-3" transform="translate(380.5 223.94)">etuer adipiscing eli</text><text class="cls-3" transform="translate(380.5 223.94)">etuer adipiscing eli</text><text class="cls-3" transform="translate(380.5 223.94)">etuer adipiscing eli</text><text class="cls-3" transform="translate(494.18 223.94)">t</text><text class="cls-3" transform="translate(494.18 223.94)">t</text><text class="cls-3" transform="translate(494.18 223.94)">t</text><text class="cls-3" transform="translate(494.18 223.94)">t</text><text class="cls-3" transform="translate(498.91 223.94)">, sed diam</text><text class="cls-3" transform="translate(498.91 223.94)">, sed diam</text><text class="cls-3" transform="translate(498.91 223.94)">, sed diam</text><text class="cls-3" transform="translate(498.91 223.94)">, sed diam</text><text class="cls-3" transform="translate(163.13 241.25)">nonum</text><text class="cls-3" transform="translate(163.13 241.25)">nonum</text><text class="cls-3" transform="translate(163.13 241.25)">nonum</text><text class="cls-3" transform="translate(163.13 241.25)">nonum</text><text class="cls-4" transform="translate(207.04 241.25)">m</text><text class="cls-4" transform="translate(207.04 241.25)">m</text><text class="cls-4" transform="translate(207.04 241.25)">m</text><text class="cls-4" transform="translate(207.04 241.25)">m</text><text class="cls-3" transform="translate(218.88 241.25)">y nibh euismod tincidu</text><text class="cls-3" transform="translate(218.88 241.25)">y nibh euismod tincidu</text><text class="cls-3" transform="translate(218.88 241.25)">y nibh euismod tincidu</text><text class="cls-3" transform="translate(218.88 241.25)">y nibh euismod tincidu</text><text class="cls-3" transform="translate(356.86 241.25)">n</text><text class="cls-3" transform="translate(356.86 241.25)">n</text><text class="cls-3" transform="translate(356.86 241.25)">n</text><text class="cls-3" transform="translate(356.86 241.25)">n</text><text class="cls-3" transform="translate(364.81 241.25)">t ut lao</text><text class="cls-3" transform="translate(364.81 241.25)">t ut lao</text><text class="cls-3" transform="translate(364.81 241.25)">t ut lao</text><text class="cls-3" transform="translate(364.81 241.25)">t ut lao</text><text class="cls-4" transform="translate(406.69 241.25)">r</text><text class="cls-4" transform="translate(406.69 241.25)">r</text><text class="cls-4" transform="translate(406.69 241.25)">r</text><text class="cls-4" transform="translate(406.69 241.25)">r</text><text class="cls-3" transform="translate(411.27 241.25)">eet dolo</text><text class="cls-3" transform="translate(411.27 241.25)">eet dolo</text><text class="cls-3" transform="translate(411.27 241.25)">eet dolo</text><text class="cls-3" transform="translate(411.27 241.25)">eet dolo</text><text class="cls-4" transform="translate(460.93 241.25)">r</text><text class="cls-4" transform="translate(460.93 241.25)">r</text><text class="cls-4" transform="translate(460.93 241.25)">r</text><text class="cls-4" transform="translate(460.93 241.25)">r</text><text class="cls-3" transform="translate(465.5 241.25)">e ma</text><text class="cls-3" transform="translate(465.5 241.25)">e ma</text><text class="cls-3" transform="translate(465.5 241.25)">e ma</text><text class="cls-3" transform="translate(465.5 241.25)">e ma</text><text class="cls-4" transform="translate(494.77 241.25)">g</text><text class="cls-4" transform="translate(494.77 241.25)">g</text><text class="cls-4" transform="translate(494.77 241.25)">g</text><text class="cls-4" transform="translate(494.77 241.25)">g</text><text class="cls-3" transform="translate(502.74 241.25)">na aliquam</text><text class="cls-3" transform="translate(502.74 241.25)">na aliquam</text><text class="cls-3" transform="translate(502.74 241.25)">na aliquam</text><text class="cls-3" transform="translate(502.74 241.25)">na aliquam</text><text class="cls-2" transform="translate(164.43 280.99)">L</text><text class="cls-2" transform="translate(164.43 280.99)">L</text><text class="cls-2" transform="translate(164.43 280.99)">L</text><text class="cls-2" transform="translate(164.43 280.99)">L</text><text class="cls-3" transform="translate(171.04 280.99)">o</text><text class="cls-3" transform="translate(171.04 280.99)">o</text><text class="cls-3" transform="translate(171.04 280.99)">o</text><text class="cls-3" transform="translate(171.04 280.99)">o</text><text class="cls-4" transform="translate(178.96 280.99)">r</text><text class="cls-4" transform="translate(178.96 280.99)">r</text><text class="cls-4" transform="translate(178.96 280.99)">r</text><text class="cls-4" transform="translate(178.96 280.99)">r</text><text class="cls-3" transform="translate(183.53 280.99)">em ipsum dolor sit ame</text><text class="cls-3" transform="translate(183.53 280.99)">em ipsum dolor sit ame</text><text class="cls-3" transform="translate(183.53 280.99)">em ipsum dolor sit ame</text><text class="cls-3" transform="translate(183.53 280.99)">em ipsum dolor sit ame</text><text class="cls-3" transform="translate(324.45 280.99)">t</text><text class="cls-3" transform="translate(324.45 280.99)">t</text><text class="cls-3" transform="translate(324.45 280.99)">t</text><text class="cls-3" transform="translate(324.45 280.99)">t</text><text class="cls-3" transform="translate(329.18 280.99)">,</text><text class="cls-3" transform="translate(329.18 280.99)">,</text><text class="cls-3" transform="translate(329.18 280.99)">,</text><text class="cls-3" transform="translate(329.18 280.99)">,</text><text class="cls-4" transform="translate(335.22 280.99)">c</text><text class="cls-4" transform="translate(335.22 280.99)">c</text><text class="cls-4" transform="translate(335.22 280.99)">c</text><text class="cls-4" transform="translate(335.22 280.99)">c</text><text class="cls-3" transform="translate(341.6 280.99)">onse</text><text class="cls-3" transform="translate(341.6 280.99)">onse</text><text class="cls-3" transform="translate(341.6 280.99)">onse</text><text class="cls-3" transform="translate(341.6 280.99)">onse</text><text class="cls-5" transform="translate(370.46 280.99)">c</text><text class="cls-5" transform="translate(370.46 280.99)">c</text><text class="cls-5" transform="translate(370.46 280.99)">c</text><text class="cls-5" transform="translate(370.46 280.99)">c</text><text class="cls-4" transform="translate(377.11 280.99)">t</text><text class="cls-4" transform="translate(377.11 280.99)">t</text><text class="cls-4" transform="translate(377.11 280.99)">t</text><text class="cls-4" transform="translate(377.11 280.99)">t</text><text class="cls-3" transform="translate(381.8 280.99)">etuer adipiscing eli</text><text class="cls-3" transform="translate(381.8 280.99)">etuer adipiscing eli</text><text class="cls-3" transform="translate(381.8 280.99)">etuer adipiscing eli</text><text class="cls-3" transform="translate(381.8 280.99)">etuer adipiscing eli</text><text class="cls-3" transform="translate(495.48 280.99)">t</text><text class="cls-3" transform="translate(495.48 280.99)">t</text><text class="cls-3" transform="translate(495.48 280.99)">t</text><text class="cls-3" transform="translate(495.48 280.99)">t</text><text class="cls-3" transform="translate(500.21 280.99)">, sed diam</text><text class="cls-3" transform="translate(500.21 280.99)">, sed diam</text><text class="cls-3" transform="translate(500.21 280.99)">, sed diam</text><text class="cls-3" transform="translate(500.21 280.99)">, sed diam</text><text class="cls-3" transform="translate(164.43 298.3)">nonum</text><text class="cls-3" transform="translate(164.43 298.3)">nonum</text><text class="cls-3" transform="translate(164.43 298.3)">nonum</text><text class="cls-3" transform="translate(164.43 298.3)">nonum</text><text class="cls-4" transform="translate(208.34 298.3)">m</text><text class="cls-4" transform="translate(208.34 298.3)">m</text><text class="cls-4" transform="translate(208.34 298.3)">m</text><text class="cls-4" transform="translate(208.34 298.3)">m</text><text class="cls-3" transform="translate(220.18 298.3)">y nibh euismod tincidu</text><text class="cls-3" transform="translate(220.18 298.3)">y nibh euismod tincidu</text><text class="cls-3" transform="translate(220.18 298.3)">y nibh euismod tincidu</text><text class="cls-3" transform="translate(220.18 298.3)">y nibh euismod tincidu</text><text class="cls-3" transform="translate(358.16 298.3)">n</text><text class="cls-3" transform="translate(358.16 298.3)">n</text><text class="cls-3" transform="translate(358.16 298.3)">n</text><text class="cls-3" transform="translate(358.16 298.3)">n</text><text class="cls-3" transform="translate(366.11 298.3)">t ut lao</text><text class="cls-3" transform="translate(366.11 298.3)">t ut lao</text><text class="cls-3" transform="translate(366.11 298.3)">t ut lao</text><text class="cls-3" transform="translate(366.11 298.3)">t ut lao</text><text class="cls-4" transform="translate(407.99 298.3)">r</text><text class="cls-4" transform="translate(407.99 298.3)">r</text><text class="cls-4" transform="translate(407.99 298.3)">r</text><text class="cls-4" transform="translate(407.99 298.3)">r</text><text class="cls-3" transform="translate(412.57 298.3)">eet dolo</text><text class="cls-3" transform="translate(412.57 298.3)">eet dolo</text><text class="cls-3" transform="translate(412.57 298.3)">eet dolo</text><text class="cls-3" transform="translate(412.57 298.3)">eet dolo</text><text class="cls-4" transform="translate(462.23 298.3)">r</text><text class="cls-4" transform="translate(462.23 298.3)">r</text><text class="cls-4" transform="translate(462.23 298.3)">r</text><text class="cls-4" transform="translate(462.23 298.3)">r</text><text class="cls-3" transform="translate(466.8 298.3)">e ma</text><text class="cls-3" transform="translate(466.8 298.3)">e ma</text><text class="cls-3" transform="translate(466.8 298.3)">e ma</text><text class="cls-3" transform="translate(466.8 298.3)">e ma</text><text class="cls-4" transform="translate(496.07 298.3)">g</text><text class="cls-4" transform="translate(496.07 298.3)">g</text><text class="cls-4" transform="translate(496.07 298.3)">g</text><text class="cls-4" transform="translate(496.07 298.3)">g</text><text class="cls-3" transform="translate(504.05 298.3)">na</text><text class="cls-3" transform="translate(504.05 298.3)">na</text><text class="cls-3" transform="translate(504.05 298.3)">na</text><text class="cls-3" transform="translate(504.05 298.3)">na</text><text class="cls-6" transform="translate(7.02 50.02)">R</text><text class="cls-6" transform="translate(49.05 50.02)">ecipe</text></svg>